<mxfile host="app.diagrams.net" modified="2024-11-16T02:39:52.002Z" agent="Mozilla/5.0 (Macintosh; Intel Mac OS X 10_15_7) AppleWebKit/537.36 (KHTML, like Gecko) Chrome/129.0.0.0 Safari/537.36" etag="7fD1ZkLix5JBg9dE-Uft" version="24.4.4" type="device">
  <diagram name="UML" id="MvfSUKwGwdcnrsB4NHhz">
    <mxGraphModel dx="714" dy="1858" grid="1" gridSize="10" guides="1" tooltips="1" connect="1" arrows="1" fold="1" page="1" pageScale="1" pageWidth="827" pageHeight="1169" math="0" shadow="0">
      <root>
        <mxCell id="0" />
        <mxCell id="1" parent="0" />
        <mxCell id="cY8wUNtef6EiulZyEPsS-9" value="" style="edgeStyle=orthogonalEdgeStyle;rounded=0;orthogonalLoop=1;jettySize=auto;html=1;endArrow=none;endFill=0;jumpStyle=line;startArrow=block;startFill=0;" edge="1" parent="1" source="cY8wUNtef6EiulZyEPsS-1" target="cY8wUNtef6EiulZyEPsS-5">
          <mxGeometry relative="1" as="geometry" />
        </mxCell>
        <mxCell id="cY8wUNtef6EiulZyEPsS-17" value="" style="edgeStyle=orthogonalEdgeStyle;rounded=0;orthogonalLoop=1;jettySize=auto;html=1;endArrow=none;endFill=0;startArrow=block;startFill=0;" edge="1" parent="1" source="cY8wUNtef6EiulZyEPsS-1" target="cY8wUNtef6EiulZyEPsS-13">
          <mxGeometry relative="1" as="geometry" />
        </mxCell>
        <mxCell id="cY8wUNtef6EiulZyEPsS-1" value="&amp;lt;&amp;lt;abstract&amp;gt;&amp;gt; User" style="swimlane;fontStyle=1;align=center;verticalAlign=top;childLayout=stackLayout;horizontal=1;startSize=26;horizontalStack=0;resizeParent=1;resizeParentMax=0;resizeLast=0;collapsible=1;marginBottom=0;whiteSpace=wrap;html=1;" vertex="1" parent="1">
          <mxGeometry x="300" y="130" width="160" height="150" as="geometry" />
        </mxCell>
        <mxCell id="cY8wUNtef6EiulZyEPsS-2" value="+ name : string&lt;div&gt;+ cpf_cnpj: string&lt;/div&gt;&lt;div&gt;+ email: string&lt;/div&gt;&lt;div&gt;+ pwd: string&lt;/div&gt;" style="text;strokeColor=none;fillColor=none;align=left;verticalAlign=top;spacingLeft=4;spacingRight=4;overflow=hidden;rotatable=0;points=[[0,0.5],[1,0.5]];portConstraint=eastwest;whiteSpace=wrap;html=1;" vertex="1" parent="cY8wUNtef6EiulZyEPsS-1">
          <mxGeometry y="26" width="160" height="74" as="geometry" />
        </mxCell>
        <mxCell id="cY8wUNtef6EiulZyEPsS-3" value="" style="line;strokeWidth=1;fillColor=none;align=left;verticalAlign=middle;spacingTop=-1;spacingLeft=3;spacingRight=3;rotatable=0;labelPosition=right;points=[];portConstraint=eastwest;strokeColor=inherit;" vertex="1" parent="cY8wUNtef6EiulZyEPsS-1">
          <mxGeometry y="100" width="160" height="8" as="geometry" />
        </mxCell>
        <mxCell id="cY8wUNtef6EiulZyEPsS-4" value="+ receive (void) : void" style="text;strokeColor=none;fillColor=none;align=left;verticalAlign=top;spacingLeft=4;spacingRight=4;overflow=hidden;rotatable=0;points=[[0,0.5],[1,0.5]];portConstraint=eastwest;whiteSpace=wrap;html=1;" vertex="1" parent="cY8wUNtef6EiulZyEPsS-1">
          <mxGeometry y="108" width="160" height="42" as="geometry" />
        </mxCell>
        <mxCell id="cY8wUNtef6EiulZyEPsS-5" value="Store" style="swimlane;fontStyle=1;align=center;verticalAlign=top;childLayout=stackLayout;horizontal=1;startSize=26;horizontalStack=0;resizeParent=1;resizeParentMax=0;resizeLast=0;collapsible=1;marginBottom=0;whiteSpace=wrap;html=1;" vertex="1" parent="1">
          <mxGeometry x="300" y="360" width="160" height="150" as="geometry" />
        </mxCell>
        <mxCell id="cY8wUNtef6EiulZyEPsS-6" value="+ name : string&lt;div&gt;+ cpf_cnpj: string&lt;/div&gt;&lt;div&gt;+ email: string&lt;/div&gt;&lt;div&gt;+ pwd: string&lt;/div&gt;" style="text;strokeColor=none;fillColor=none;align=left;verticalAlign=top;spacingLeft=4;spacingRight=4;overflow=hidden;rotatable=0;points=[[0,0.5],[1,0.5]];portConstraint=eastwest;whiteSpace=wrap;html=1;" vertex="1" parent="cY8wUNtef6EiulZyEPsS-5">
          <mxGeometry y="26" width="160" height="74" as="geometry" />
        </mxCell>
        <mxCell id="cY8wUNtef6EiulZyEPsS-7" value="" style="line;strokeWidth=1;fillColor=none;align=left;verticalAlign=middle;spacingTop=-1;spacingLeft=3;spacingRight=3;rotatable=0;labelPosition=right;points=[];portConstraint=eastwest;strokeColor=inherit;" vertex="1" parent="cY8wUNtef6EiulZyEPsS-5">
          <mxGeometry y="100" width="160" height="8" as="geometry" />
        </mxCell>
        <mxCell id="cY8wUNtef6EiulZyEPsS-8" value="+ receive (void) : void" style="text;strokeColor=none;fillColor=none;align=left;verticalAlign=top;spacingLeft=4;spacingRight=4;overflow=hidden;rotatable=0;points=[[0,0.5],[1,0.5]];portConstraint=eastwest;whiteSpace=wrap;html=1;" vertex="1" parent="cY8wUNtef6EiulZyEPsS-5">
          <mxGeometry y="108" width="160" height="42" as="geometry" />
        </mxCell>
        <mxCell id="cY8wUNtef6EiulZyEPsS-13" value="CommonUser" style="swimlane;fontStyle=1;align=center;verticalAlign=top;childLayout=stackLayout;horizontal=1;startSize=26;horizontalStack=0;resizeParent=1;resizeParentMax=0;resizeLast=0;collapsible=1;marginBottom=0;whiteSpace=wrap;html=1;" vertex="1" parent="1">
          <mxGeometry x="300" y="-100" width="160" height="150" as="geometry" />
        </mxCell>
        <mxCell id="cY8wUNtef6EiulZyEPsS-14" value="+ name : string&lt;div&gt;+ cpf_cnpj: string&lt;/div&gt;&lt;div&gt;+ email: string&lt;/div&gt;&lt;div&gt;+ pwd: string&lt;/div&gt;" style="text;strokeColor=none;fillColor=none;align=left;verticalAlign=top;spacingLeft=4;spacingRight=4;overflow=hidden;rotatable=0;points=[[0,0.5],[1,0.5]];portConstraint=eastwest;whiteSpace=wrap;html=1;" vertex="1" parent="cY8wUNtef6EiulZyEPsS-13">
          <mxGeometry y="26" width="160" height="74" as="geometry" />
        </mxCell>
        <mxCell id="cY8wUNtef6EiulZyEPsS-15" value="" style="line;strokeWidth=1;fillColor=none;align=left;verticalAlign=middle;spacingTop=-1;spacingLeft=3;spacingRight=3;rotatable=0;labelPosition=right;points=[];portConstraint=eastwest;strokeColor=inherit;" vertex="1" parent="cY8wUNtef6EiulZyEPsS-13">
          <mxGeometry y="100" width="160" height="8" as="geometry" />
        </mxCell>
        <mxCell id="cY8wUNtef6EiulZyEPsS-16" value="+ receive (void) : void&lt;div&gt;+ transfer (void) : void&lt;/div&gt;" style="text;strokeColor=none;fillColor=none;align=left;verticalAlign=top;spacingLeft=4;spacingRight=4;overflow=hidden;rotatable=0;points=[[0,0.5],[1,0.5]];portConstraint=eastwest;whiteSpace=wrap;html=1;" vertex="1" parent="cY8wUNtef6EiulZyEPsS-13">
          <mxGeometry y="108" width="160" height="42" as="geometry" />
        </mxCell>
      </root>
    </mxGraphModel>
  </diagram>
</mxfile>
